<?xml version="1.0" encoding="UTF-8" standalone="no"?>
<!--
SPDX-FileCopyrightText: Copyright 2024 Siemens AG
SPDX-License-Identifier: MPL-2.0
-->

<svg
   width="100mm"
   height="100mm"
   viewBox="0 0 100 100"
   version="1.1"
   id="svg5"
   xml:space="preserve"
   xmlns:xlink="http://www.w3.org/1999/xlink"
   xmlns="http://www.w3.org/2000/svg"
   xmlns:svg="http://www.w3.org/2000/svg"><defs
     id="defs2"><linearGradient
       id="linearGradient4375"><stop
         style="stop-color:#069af3;stop-opacity:1;"
         offset="0"
         id="stop4371" /><stop
         style="stop-color:#ccf8ff;stop-opacity:1"
         offset="1"
         id="stop4373" /></linearGradient><linearGradient
       xlink:href="#linearGradient4375"
       id="linearGradient4377"
       x1="48.31311"
       y1="16.713781"
       x2="48.31311"
       y2="46.555481"
       gradientUnits="userSpaceOnUse" /></defs><g
     id="layer1"><path
       d="M 65.135127,12.39449 C 49.504589,-2.9111501 23.026701,5.4874721 19.114197,26.994854 11.279275,28.131298 5.2422431,34.892564 5.2422431,43.037426 c 0,8.938668 7.2720919,16.21076 16.2107599,16.21076 h 49.101712 c 13.089453,0 23.738352,-10.648899 23.738352,-23.738178 C 94.293241,20.30368 80.080563,8.9006297 65.135127,12.39449 Z"
       id="path411"
       style="display:inline;fill:url(#linearGradient4377);fill-opacity:1;stroke:#014594;stroke-width:5;stroke-dasharray:none;stroke-opacity:1" /><rect
       style="fill:#ffffff;fill-opacity:1;stroke:#000000;stroke-width:5;stroke-dasharray:none;stroke-opacity:1"
       id="rect13806"
       width="30.734219"
       height="50.118385"
       x="22.588255"
       y="44.190254" /><g
       style="fill:none;stroke-width:2.76486;stroke-dasharray:none"
       id="g13831"
       transform="matrix(1.7124963,0,0,1.7124963,17.291385,51.181473)"><path
         d="M 12,4 V 17.097154 M 12,4 8,8 m 4,-4 4,4"
         stroke="#000000"
         stroke-width="2"
         stroke-linecap="round"
         stroke-linejoin="round"
         id="path13822"
         style="stroke-width:2.76486;stroke-dasharray:none" /></g><g
       style="fill:none;stroke-width:2.76486;stroke-dasharray:none"
       id="g22606"
       transform="matrix(-1.7124963,0,0,-1.7124963,92.083337,95.783804)"><path
         d="M 12,4 V 17.097154 M 12,4 8,8 m 4,-4 4,4"
         stroke="#000000"
         stroke-width="2"
         stroke-linecap="round"
         stroke-linejoin="round"
         id="path22604"
         style="stroke-width:2.76486;stroke-dasharray:none" /></g></g></svg>
